<svg width="101" height="100" viewBox="0 0 101 100" fill="none" xmlns="http://www.w3.org/2000/svg">
<path fill-rule="evenodd" clip-rule="evenodd" d="M80 32C86.6274 32 92 26.6274 92 20C92 13.3726 86.6274 8 80 8C73.3726 8 68 13.3726 68 20C68 26.6274 73.3726 32 80 32ZM80 40C91.0457 40 100 31.0457 100 20C100 8.9543 91.0457 0 80 0C68.9543 0 60 8.9543 60 20C60 31.0457 68.9543 40 80 40ZM21.8971 0.0800781C14.3765 0.0800781 8.73626 3.97423 5.1716 9.32281C1.70201 14.5287 0.111001 21.1614 0.091011 27.5145C0.0710249 33.8663 1.61991 40.5112 5.08802 45.7315C8.65798 51.1051 14.3257 54.9803 21.8967 54.9803H50.083V54.9797H78.2684C81.9717 54.9797 84.7245 56.717 86.7477 59.7622C88.8726 62.9608 90.0894 67.5409 90.0741 72.4141C90.0587 77.2861 88.8135 81.8785 86.6722 85.0914C84.626 88.1616 81.8808 89.88 78.2679 89.88H55.082L55.082 59.7406L45.082 59.7406L45.082 94.88L45.082 99.88H50.082H78.2679C85.7886 99.88 91.4288 95.9858 94.9934 90.6372C98.463 85.4313 100.054 78.7987 100.074 72.4456C100.094 66.0937 98.5451 59.4488 95.077 54.2285C91.5071 48.855 85.8394 44.9797 78.2684 44.9797H50.082V44.9803H21.8967C18.1933 44.9803 15.4405 43.2431 13.4174 40.1978C11.2924 36.9993 10.0756 32.4191 10.091 27.5459C10.1063 22.674 11.3516 18.0815 13.4929 14.8687C15.5391 11.7985 18.2842 10.0801 21.8971 10.0801H45.083V40.2194H55.083V5.08008V0.0800781H50.083H21.8971ZM32 80C32 86.6274 26.6274 92 20 92C13.3726 92 8 86.6274 8 80C8 73.3726 13.3726 68 20 68C26.6274 68 32 73.3726 32 80ZM40 80C40 91.0457 31.0457 100 20 100C8.9543 100 0 91.0457 0 80C0 68.9543 8.9543 60 20 60C31.0457 60 40 68.9543 40 80Z" fill="#000000"/>
</svg>
