<svg width="180" height="180" viewBox="0 0 180 180" fill="none" xmlns="http://www.w3.org/2000/svg">
<g filter="url(#filter0_d_689_37)">
<rect x="30" y="26" width="120" height="120" rx="30" fill="white"/>
<path fill-rule="evenodd" clip-rule="evenodd" d="M115 70C119.971 70 124 65.9706 124 61C124 56.0294 119.971 52 115 52C110.029 52 106 56.0294 106 61C106 65.9706 110.029 70 115 70ZM115 78C124.389 78 132 70.3888 132 61C132 51.6112 124.389 44 115 44C105.611 44 98 51.6112 98 61C98 70.3888 105.611 78 115 78ZM66.9464 44.2002C60.4346 44.2002 55.5578 47.5928 52.5061 52.1812C49.549 56.6272 48.2171 62.2458 48.2004 67.5845C48.1836 72.9219 49.4798 78.5528 52.437 83.0131C55.4957 87.6265 60.3967 91.0002 66.946 91.0002H90.0002V90.9998H113.054C115.726 90.9998 117.712 92.2261 119.228 94.5127C120.846 96.9524 121.812 100.522 121.8 104.384C121.788 108.245 120.8 111.827 119.167 114.281C117.63 116.592 115.648 117.8 113.054 117.8H94.9998L94.9998 93.9998L84.9998 93.9998L84.9998 122.8L84.9998 127.8H89.9998H113.054C119.565 127.8 124.442 124.407 127.494 119.819C130.451 115.373 131.783 109.754 131.8 104.416C131.816 99.0781 130.52 93.4472 127.563 88.9869C124.504 84.3735 119.603 80.9998 113.054 80.9998H89.9998V81.0002H66.946C64.2738 81.0002 62.2876 79.7739 60.7716 77.4873C59.154 75.0476 58.1882 71.4785 58.2003 67.6159C58.2124 63.7546 59.2004 60.1732 60.8326 57.7192C62.37 55.4076 64.3518 54.2002 66.9464 54.2002H85.0002V78.0002H95.0002V49.2002V44.2002H90.0002H66.9464ZM74 111C74 115.971 69.9706 120 65 120C60.0294 120 56 115.971 56 111C56 106.029 60.0294 102 65 102C69.9706 102 74 106.029 74 111ZM82 111C82 120.389 74.3888 128 65 128C55.6112 128 48 120.389 48 111C48 101.611 55.6112 94 65 94C74.3888 94 82 101.611 82 111Z" fill="url(#paint0_linear_689_37)"/>
</g>
<defs>
<filter id="filter0_d_689_37" x="0" y="0" width="180" height="180" filterUnits="userSpaceOnUse" color-interpolation-filters="sRGB">
<feFlood flood-opacity="0" result="BackgroundImageFix"/>
<feColorMatrix in="SourceAlpha" type="matrix" values="0 0 0 0 0 0 0 0 0 0 0 0 0 0 0 0 0 0 127 0" result="hardAlpha"/>
<feOffset dy="4"/>
<feGaussianBlur stdDeviation="15"/>
<feComposite in2="hardAlpha" operator="out"/>
<feColorMatrix type="matrix" values="0 0 0 0 0 0 0 0 0 0 0 0 0 0 0 0 0 0 0.2 0"/>
<feBlend mode="normal" in2="BackgroundImageFix" result="effect1_dropShadow_689_37"/>
<feBlend mode="normal" in="SourceGraphic" in2="effect1_dropShadow_689_37" result="shape"/>
</filter>
<linearGradient id="paint0_linear_689_37" x1="30" y1="146" x2="150" y2="26" gradientUnits="userSpaceOnUse">
<stop stop-color="#FF3300"/>
<stop offset="1" stop-color="#3A74FF"/>
</linearGradient>
</defs>
</svg>
