<svg width="120" height="120" viewBox="0 0 120 120" fill="none" xmlns="http://www.w3.org/2000/svg">
<rect width="120" height="120" rx="30" fill="black"/>
<path fill-rule="evenodd" clip-rule="evenodd" d="M85 44C89.9706 44 94 39.9706 94 35C94 30.0294 89.9706 26 85 26C80.0294 26 76 30.0294 76 35C76 39.9706 80.0294 44 85 44ZM85 52C94.3888 52 102 44.3888 102 35C102 25.6112 94.3888 18 85 18C75.6112 18 68 25.6112 68 35C68 44.3888 75.6112 52 85 52ZM36.9464 18.2002C30.4346 18.2002 25.5578 21.5928 22.5061 26.1812C19.549 30.6272 18.2171 36.2458 18.2004 41.5845C18.1836 46.9219 19.4798 52.5528 22.437 57.0131C25.4957 61.6265 30.3967 65.0002 36.946 65.0002H60.0002V64.9998H83.054C85.7262 64.9998 87.7124 66.2261 89.2284 68.5127C90.846 70.9524 91.8118 74.5215 91.7997 78.3841C91.7876 82.2454 90.7996 85.8268 89.1674 88.2808C87.63 90.5924 85.6482 91.7998 83.0536 91.7998H64.9998L64.9998 67.9998L54.9998 67.9998L54.9998 96.7998L54.9998 101.8H59.9998H83.0536C89.5654 101.8 94.4422 98.4072 97.4939 93.8188C100.451 89.3728 101.783 83.7542 101.8 78.4155C101.816 73.0781 100.52 67.4472 97.563 62.9869C94.5043 58.3735 89.6033 54.9998 83.054 54.9998H59.9998V55.0002H36.946C34.2738 55.0002 32.2876 53.7739 30.7716 51.4873C29.154 49.0476 28.1882 45.4785 28.2003 41.6159C28.2124 37.7546 29.2004 34.1732 30.8326 31.7192C32.37 29.4076 34.3518 28.2002 36.9464 28.2002H55.0002V52.0002H65.0002V23.2002V18.2002H60.0002H36.9464ZM44 85C44 89.9706 39.9706 94 35 94C30.0294 94 26 89.9706 26 85C26 80.0294 30.0294 76 35 76C39.9706 76 44 80.0294 44 85ZM52 85C52 94.3888 44.3888 102 35 102C25.6112 102 18 94.3888 18 85C18 75.6112 25.6112 68 35 68C44.3888 68 52 75.6112 52 85Z" fill="url(#paint0_linear_689_36)"/>
<defs>
<linearGradient id="paint0_linear_689_36" x1="2.65667e-06" y1="120" x2="120" y2="3.23568e-06" gradientUnits="userSpaceOnUse">
<stop stop-color="#FF3300"/>
<stop offset="1" stop-color="#3A74FF"/>
</linearGradient>
</defs>
</svg>
